# xmcd
#
# Track frame offsets:
#	150
#	2483
#	72660
#	121586
#	162574
#	190609
#
# Disc length: 2821 seconds
#
# Revision: 1
# Processed by: cddbd v1.5.2PL0 Copyright (c) Steve Scherf et al.
# Submitted via: audiograbber 1.83.01
#
DISCID=450b0306
DTITLE=Grateful Dead - 95-03-30 The Omni, Atlanta GA
DYEAR=1900
DGENRE=
TTITLE0=Drums
TTITLE1=Space
TTITLE2=Visions Of Johanna
TTITLE3=Throwing Stones
TTITLE4=Turn On Your Lovelight
TTITLE5=Lucy In The Sky With Diamonds
EXTD=
EXTT0=
EXTT1=
EXTT2=
EXTT3=
EXTT4=
EXTT5=
PLAYORDER=
